<mxfile host="app.diagrams.net" modified="2021-12-22T20:56:25.485Z" agent="5.0 (Windows)" etag="uxAUzJk_M0Nc8Lh7y70V" version="16.0.0" type="github">
  <diagram id="jJBAbsxzVGatJTy1RMXg" name="Page-1">
    <mxGraphModel dx="1882" dy="1111" grid="1" gridSize="10" guides="1" tooltips="1" connect="1" arrows="1" fold="1" page="1" pageScale="1" pageWidth="827" pageHeight="1169" math="0" shadow="0">
      <root>
        <mxCell id="0" />
        <mxCell id="1" parent="0" />
        <mxCell id="ZVsHchO25P_MbFDnP1mq-1" value="Batch" style="swimlane;fontStyle=0;childLayout=stackLayout;horizontal=1;startSize=26;fillColor=#d5e8d4;horizontalStack=0;resizeParent=1;resizeParentMax=0;resizeLast=0;collapsible=1;marginBottom=0;strokeColor=#82b366;" vertex="1" parent="1">
          <mxGeometry x="620" y="285" width="180" height="104" as="geometry" />
        </mxCell>
        <mxCell id="ZVsHchO25P_MbFDnP1mq-2" value="+ ID: int" style="text;strokeColor=#82b366;fillColor=#d5e8d4;align=left;verticalAlign=top;spacingLeft=4;spacingRight=4;overflow=hidden;rotatable=0;points=[[0,0.5],[1,0.5]];portConstraint=eastwest;" vertex="1" parent="ZVsHchO25P_MbFDnP1mq-1">
          <mxGeometry y="26" width="180" height="26" as="geometry" />
        </mxCell>
        <mxCell id="ZVsHchO25P_MbFDnP1mq-3" value="+ Name: string" style="text;strokeColor=#82b366;fillColor=#d5e8d4;align=left;verticalAlign=top;spacingLeft=4;spacingRight=4;overflow=hidden;rotatable=0;points=[[0,0.5],[1,0.5]];portConstraint=eastwest;" vertex="1" parent="ZVsHchO25P_MbFDnP1mq-1">
          <mxGeometry y="52" width="180" height="26" as="geometry" />
        </mxCell>
        <mxCell id="ZVsHchO25P_MbFDnP1mq-4" value="+ Documents: Document[]" style="text;strokeColor=#82b366;fillColor=#d5e8d4;align=left;verticalAlign=top;spacingLeft=4;spacingRight=4;overflow=hidden;rotatable=0;points=[[0,0.5],[1,0.5]];portConstraint=eastwest;" vertex="1" parent="ZVsHchO25P_MbFDnP1mq-1">
          <mxGeometry y="78" width="180" height="26" as="geometry" />
        </mxCell>
        <mxCell id="ZVsHchO25P_MbFDnP1mq-5" value="Document" style="swimlane;fontStyle=0;childLayout=stackLayout;horizontal=1;startSize=26;fillColor=#d5e8d4;horizontalStack=0;resizeParent=1;resizeParentMax=0;resizeLast=0;collapsible=1;marginBottom=0;strokeColor=#82b366;" vertex="1" parent="1">
          <mxGeometry x="450" y="450" width="270" height="182" as="geometry" />
        </mxCell>
        <mxCell id="ZVsHchO25P_MbFDnP1mq-6" value="+ Name: string" style="text;strokeColor=#82b366;fillColor=#d5e8d4;align=left;verticalAlign=top;spacingLeft=4;spacingRight=4;overflow=hidden;rotatable=0;points=[[0,0.5],[1,0.5]];portConstraint=eastwest;" vertex="1" parent="ZVsHchO25P_MbFDnP1mq-5">
          <mxGeometry y="26" width="270" height="26" as="geometry" />
        </mxCell>
        <mxCell id="ZVsHchO25P_MbFDnP1mq-7" value="+ ID: int" style="text;strokeColor=#b85450;fillColor=#f8cecc;align=left;verticalAlign=top;spacingLeft=4;spacingRight=4;overflow=hidden;rotatable=0;points=[[0,0.5],[1,0.5]];portConstraint=eastwest;" vertex="1" parent="ZVsHchO25P_MbFDnP1mq-5">
          <mxGeometry y="52" width="270" height="26" as="geometry" />
        </mxCell>
        <mxCell id="ZVsHchO25P_MbFDnP1mq-8" value="+ Fields: Field[]" style="text;strokeColor=#82b366;fillColor=#d5e8d4;align=left;verticalAlign=top;spacingLeft=4;spacingRight=4;overflow=hidden;rotatable=0;points=[[0,0.5],[1,0.5]];portConstraint=eastwest;" vertex="1" parent="ZVsHchO25P_MbFDnP1mq-5">
          <mxGeometry y="78" width="270" height="26" as="geometry" />
        </mxCell>
        <mxCell id="ZVsHchO25P_MbFDnP1mq-9" value="+ Groups: Group[]" style="text;strokeColor=#82b366;fillColor=#d5e8d4;align=left;verticalAlign=top;spacingLeft=4;spacingRight=4;overflow=hidden;rotatable=0;points=[[0,0.5],[1,0.5]];portConstraint=eastwest;" vertex="1" parent="ZVsHchO25P_MbFDnP1mq-5">
          <mxGeometry y="104" width="270" height="26" as="geometry" />
        </mxCell>
        <mxCell id="ZVsHchO25P_MbFDnP1mq-10" value="+ Pages: Page[]" style="text;strokeColor=#82b366;fillColor=#d5e8d4;align=left;verticalAlign=top;spacingLeft=4;spacingRight=4;overflow=hidden;rotatable=0;points=[[0,0.5],[1,0.5]];portConstraint=eastwest;" vertex="1" parent="ZVsHchO25P_MbFDnP1mq-5">
          <mxGeometry y="130" width="270" height="26" as="geometry" />
        </mxCell>
        <mxCell id="ZVsHchO25P_MbFDnP1mq-11" value="+ RepeatableInstances: RepeatableInstance[]" style="text;strokeColor=#82b366;fillColor=#d5e8d4;align=left;verticalAlign=top;spacingLeft=4;spacingRight=4;overflow=hidden;rotatable=0;points=[[0,0.5],[1,0.5]];portConstraint=eastwest;" vertex="1" parent="ZVsHchO25P_MbFDnP1mq-5">
          <mxGeometry y="156" width="270" height="26" as="geometry" />
        </mxCell>
        <mxCell id="ZVsHchO25P_MbFDnP1mq-12" style="edgeStyle=orthogonalEdgeStyle;rounded=0;orthogonalLoop=1;jettySize=auto;html=1;" edge="1" parent="1" source="ZVsHchO25P_MbFDnP1mq-4" target="ZVsHchO25P_MbFDnP1mq-5">
          <mxGeometry relative="1" as="geometry" />
        </mxCell>
        <mxCell id="ZVsHchO25P_MbFDnP1mq-13" value="Field" style="swimlane;fontStyle=0;childLayout=stackLayout;horizontal=1;startSize=26;fillColor=#d5e8d4;horizontalStack=0;resizeParent=1;resizeParentMax=0;resizeLast=0;collapsible=1;marginBottom=0;strokeColor=#82b366;" vertex="1" parent="1">
          <mxGeometry x="1030" y="540" width="180" height="130" as="geometry" />
        </mxCell>
        <mxCell id="ZVsHchO25P_MbFDnP1mq-14" value="+ Name: string" style="text;strokeColor=#82b366;fillColor=#d5e8d4;align=left;verticalAlign=top;spacingLeft=4;spacingRight=4;overflow=hidden;rotatable=0;points=[[0,0.5],[1,0.5]];portConstraint=eastwest;" vertex="1" parent="ZVsHchO25P_MbFDnP1mq-13">
          <mxGeometry y="26" width="180" height="26" as="geometry" />
        </mxCell>
        <mxCell id="ZVsHchO25P_MbFDnP1mq-15" value="+ Value: String" style="text;strokeColor=#82b366;fillColor=#d5e8d4;align=left;verticalAlign=top;spacingLeft=4;spacingRight=4;overflow=hidden;rotatable=0;points=[[0,0.5],[1,0.5]];portConstraint=eastwest;" vertex="1" parent="ZVsHchO25P_MbFDnP1mq-13">
          <mxGeometry y="52" width="180" height="26" as="geometry" />
        </mxCell>
        <mxCell id="ZVsHchO25P_MbFDnP1mq-16" value="+ SuspiciousSymbols: string" style="text;strokeColor=#82b366;fillColor=#d5e8d4;align=left;verticalAlign=top;spacingLeft=4;spacingRight=4;overflow=hidden;rotatable=0;points=[[0,0.5],[1,0.5]];portConstraint=eastwest;" vertex="1" parent="ZVsHchO25P_MbFDnP1mq-13">
          <mxGeometry y="78" width="180" height="26" as="geometry" />
        </mxCell>
        <mxCell id="ZVsHchO25P_MbFDnP1mq-17" value="+ Regions: Region[]" style="text;strokeColor=#82b366;fillColor=#d5e8d4;align=left;verticalAlign=top;spacingLeft=4;spacingRight=4;overflow=hidden;rotatable=0;points=[[0,0.5],[1,0.5]];portConstraint=eastwest;" vertex="1" parent="ZVsHchO25P_MbFDnP1mq-13">
          <mxGeometry y="104" width="180" height="26" as="geometry" />
        </mxCell>
        <mxCell id="ZVsHchO25P_MbFDnP1mq-18" value="Group" style="swimlane;fontStyle=0;childLayout=stackLayout;horizontal=1;startSize=26;fillColor=#d5e8d4;horizontalStack=0;resizeParent=1;resizeParentMax=0;resizeLast=0;collapsible=1;marginBottom=0;strokeColor=#82b366;" vertex="1" parent="1">
          <mxGeometry x="630" y="670" width="290" height="130" as="geometry" />
        </mxCell>
        <mxCell id="ZVsHchO25P_MbFDnP1mq-19" value="+ Name: string" style="text;strokeColor=#82b366;fillColor=#d5e8d4;align=left;verticalAlign=top;spacingLeft=4;spacingRight=4;overflow=hidden;rotatable=0;points=[[0,0.5],[1,0.5]];portConstraint=eastwest;" vertex="1" parent="ZVsHchO25P_MbFDnP1mq-18">
          <mxGeometry y="26" width="290" height="26" as="geometry" />
        </mxCell>
        <mxCell id="ZVsHchO25P_MbFDnP1mq-20" value="+ Fields: Field[]" style="text;strokeColor=#82b366;fillColor=#d5e8d4;align=left;verticalAlign=top;spacingLeft=4;spacingRight=4;overflow=hidden;rotatable=0;points=[[0,0.5],[1,0.5]];portConstraint=eastwest;" vertex="1" parent="ZVsHchO25P_MbFDnP1mq-18">
          <mxGeometry y="52" width="290" height="26" as="geometry" />
        </mxCell>
        <mxCell id="ZVsHchO25P_MbFDnP1mq-21" style="edgeStyle=orthogonalEdgeStyle;rounded=0;orthogonalLoop=1;jettySize=auto;html=1;entryX=0.75;entryY=0;entryDx=0;entryDy=0;exitX=1;exitY=0.5;exitDx=0;exitDy=0;" edge="1" parent="ZVsHchO25P_MbFDnP1mq-18" source="ZVsHchO25P_MbFDnP1mq-22" target="ZVsHchO25P_MbFDnP1mq-18">
          <mxGeometry relative="1" as="geometry" />
        </mxCell>
        <mxCell id="ZVsHchO25P_MbFDnP1mq-22" value="+ Groups: Group[]" style="text;strokeColor=#82b366;fillColor=#d5e8d4;align=left;verticalAlign=top;spacingLeft=4;spacingRight=4;overflow=hidden;rotatable=0;points=[[0,0.5],[1,0.5]];portConstraint=eastwest;" vertex="1" parent="ZVsHchO25P_MbFDnP1mq-18">
          <mxGeometry y="78" width="290" height="26" as="geometry" />
        </mxCell>
        <mxCell id="ZVsHchO25P_MbFDnP1mq-23" value="+ RepeatableInstances: RepeatableInstance[]" style="text;strokeColor=#82b366;fillColor=#d5e8d4;align=left;verticalAlign=top;spacingLeft=4;spacingRight=4;overflow=hidden;rotatable=0;points=[[0,0.5],[1,0.5]];portConstraint=eastwest;" vertex="1" parent="ZVsHchO25P_MbFDnP1mq-18">
          <mxGeometry y="104" width="290" height="26" as="geometry" />
        </mxCell>
        <mxCell id="ZVsHchO25P_MbFDnP1mq-24" style="edgeStyle=orthogonalEdgeStyle;rounded=0;orthogonalLoop=1;jettySize=auto;html=1;" edge="1" parent="1" source="ZVsHchO25P_MbFDnP1mq-8" target="ZVsHchO25P_MbFDnP1mq-13">
          <mxGeometry relative="1" as="geometry" />
        </mxCell>
        <mxCell id="ZVsHchO25P_MbFDnP1mq-25" style="edgeStyle=orthogonalEdgeStyle;rounded=0;orthogonalLoop=1;jettySize=auto;html=1;" edge="1" parent="1" source="ZVsHchO25P_MbFDnP1mq-9" target="ZVsHchO25P_MbFDnP1mq-18">
          <mxGeometry relative="1" as="geometry" />
        </mxCell>
        <mxCell id="ZVsHchO25P_MbFDnP1mq-26" style="edgeStyle=orthogonalEdgeStyle;rounded=0;orthogonalLoop=1;jettySize=auto;html=1;" edge="1" parent="1" source="ZVsHchO25P_MbFDnP1mq-20" target="ZVsHchO25P_MbFDnP1mq-13">
          <mxGeometry relative="1" as="geometry" />
        </mxCell>
        <mxCell id="ZVsHchO25P_MbFDnP1mq-27" value="Page" style="swimlane;fontStyle=0;childLayout=stackLayout;horizontal=1;startSize=26;fillColor=#d5e8d4;horizontalStack=0;resizeParent=1;resizeParentMax=0;resizeLast=0;collapsible=1;marginBottom=0;strokeColor=#82b366;" vertex="1" parent="1">
          <mxGeometry x="180" y="502" width="140" height="78" as="geometry" />
        </mxCell>
        <mxCell id="ZVsHchO25P_MbFDnP1mq-28" value="+ ImageSource: string" style="text;strokeColor=#82b366;fillColor=#d5e8d4;align=left;verticalAlign=top;spacingLeft=4;spacingRight=4;overflow=hidden;rotatable=0;points=[[0,0.5],[1,0.5]];portConstraint=eastwest;" vertex="1" parent="ZVsHchO25P_MbFDnP1mq-27">
          <mxGeometry y="26" width="140" height="26" as="geometry" />
        </mxCell>
        <mxCell id="ZVsHchO25P_MbFDnP1mq-29" value="+ PageIndex: int" style="text;strokeColor=#82b366;fillColor=#d5e8d4;align=left;verticalAlign=top;spacingLeft=4;spacingRight=4;overflow=hidden;rotatable=0;points=[[0,0.5],[1,0.5]];portConstraint=eastwest;" vertex="1" parent="ZVsHchO25P_MbFDnP1mq-27">
          <mxGeometry y="52" width="140" height="26" as="geometry" />
        </mxCell>
        <mxCell id="ZVsHchO25P_MbFDnP1mq-30" value="Region" style="swimlane;fontStyle=0;childLayout=stackLayout;horizontal=1;startSize=26;fillColor=#fff2cc;horizontalStack=0;resizeParent=1;resizeParentMax=0;resizeLast=0;collapsible=1;marginBottom=0;strokeColor=#d6b656;" vertex="1" parent="1">
          <mxGeometry x="1220" y="722" width="140" height="78" as="geometry" />
        </mxCell>
        <mxCell id="ZVsHchO25P_MbFDnP1mq-31" value="+ PageIndex: int" style="text;strokeColor=#d6b656;fillColor=#fff2cc;align=left;verticalAlign=top;spacingLeft=4;spacingRight=4;overflow=hidden;rotatable=0;points=[[0,0.5],[1,0.5]];portConstraint=eastwest;" vertex="1" parent="ZVsHchO25P_MbFDnP1mq-30">
          <mxGeometry y="26" width="140" height="26" as="geometry" />
        </mxCell>
        <mxCell id="ZVsHchO25P_MbFDnP1mq-32" value="+ Rects: Rect[]" style="text;strokeColor=#d6b656;fillColor=#fff2cc;align=left;verticalAlign=top;spacingLeft=4;spacingRight=4;overflow=hidden;rotatable=0;points=[[0,0.5],[1,0.5]];portConstraint=eastwest;" vertex="1" parent="ZVsHchO25P_MbFDnP1mq-30">
          <mxGeometry y="52" width="140" height="26" as="geometry" />
        </mxCell>
        <mxCell id="ZVsHchO25P_MbFDnP1mq-33" value="Rect" style="swimlane;fontStyle=0;childLayout=stackLayout;horizontal=1;startSize=26;fillColor=#fff2cc;horizontalStack=0;resizeParent=1;resizeParentMax=0;resizeLast=0;collapsible=1;marginBottom=0;strokeColor=#d6b656;" vertex="1" parent="1">
          <mxGeometry x="1400" y="800" width="100" height="130" as="geometry" />
        </mxCell>
        <mxCell id="ZVsHchO25P_MbFDnP1mq-34" value="+ Left: int" style="text;strokeColor=#d6b656;fillColor=#fff2cc;align=left;verticalAlign=top;spacingLeft=4;spacingRight=4;overflow=hidden;rotatable=0;points=[[0,0.5],[1,0.5]];portConstraint=eastwest;" vertex="1" parent="ZVsHchO25P_MbFDnP1mq-33">
          <mxGeometry y="26" width="100" height="26" as="geometry" />
        </mxCell>
        <mxCell id="ZVsHchO25P_MbFDnP1mq-35" value="+ Right: int" style="text;strokeColor=#d6b656;fillColor=#fff2cc;align=left;verticalAlign=top;spacingLeft=4;spacingRight=4;overflow=hidden;rotatable=0;points=[[0,0.5],[1,0.5]];portConstraint=eastwest;" vertex="1" parent="ZVsHchO25P_MbFDnP1mq-33">
          <mxGeometry y="52" width="100" height="26" as="geometry" />
        </mxCell>
        <mxCell id="ZVsHchO25P_MbFDnP1mq-36" value="+ Top: int" style="text;strokeColor=#d6b656;fillColor=#fff2cc;align=left;verticalAlign=top;spacingLeft=4;spacingRight=4;overflow=hidden;rotatable=0;points=[[0,0.5],[1,0.5]];portConstraint=eastwest;" vertex="1" parent="ZVsHchO25P_MbFDnP1mq-33">
          <mxGeometry y="78" width="100" height="26" as="geometry" />
        </mxCell>
        <mxCell id="ZVsHchO25P_MbFDnP1mq-37" value="+ Bottom: int" style="text;strokeColor=#d6b656;fillColor=#fff2cc;align=left;verticalAlign=top;spacingLeft=4;spacingRight=4;overflow=hidden;rotatable=0;points=[[0,0.5],[1,0.5]];portConstraint=eastwest;" vertex="1" parent="ZVsHchO25P_MbFDnP1mq-33">
          <mxGeometry y="104" width="100" height="26" as="geometry" />
        </mxCell>
        <mxCell id="ZVsHchO25P_MbFDnP1mq-38" style="edgeStyle=orthogonalEdgeStyle;rounded=0;orthogonalLoop=1;jettySize=auto;html=1;fillColor=#fff2cc;strokeColor=#d6b656;" edge="1" parent="1" source="ZVsHchO25P_MbFDnP1mq-32" target="ZVsHchO25P_MbFDnP1mq-33">
          <mxGeometry relative="1" as="geometry" />
        </mxCell>
        <mxCell id="ZVsHchO25P_MbFDnP1mq-39" style="edgeStyle=orthogonalEdgeStyle;rounded=0;orthogonalLoop=1;jettySize=auto;html=1;exitX=1;exitY=0.5;exitDx=0;exitDy=0;" edge="1" parent="1" source="ZVsHchO25P_MbFDnP1mq-17" target="ZVsHchO25P_MbFDnP1mq-30">
          <mxGeometry relative="1" as="geometry" />
        </mxCell>
        <mxCell id="ZVsHchO25P_MbFDnP1mq-40" value="Instance" style="swimlane;fontStyle=0;childLayout=stackLayout;horizontal=1;startSize=26;fillColor=#d5e8d4;horizontalStack=0;resizeParent=1;resizeParentMax=0;resizeLast=0;collapsible=1;marginBottom=0;strokeColor=#82b366;" vertex="1" parent="1">
          <mxGeometry x="630" y="880" width="270" height="104" as="geometry" />
        </mxCell>
        <mxCell id="ZVsHchO25P_MbFDnP1mq-41" value="+ Fields: Field[]" style="text;strokeColor=#82b366;fillColor=#d5e8d4;align=left;verticalAlign=top;spacingLeft=4;spacingRight=4;overflow=hidden;rotatable=0;points=[[0,0.5],[1,0.5]];portConstraint=eastwest;" vertex="1" parent="ZVsHchO25P_MbFDnP1mq-40">
          <mxGeometry y="26" width="270" height="26" as="geometry" />
        </mxCell>
        <mxCell id="ZVsHchO25P_MbFDnP1mq-42" value="+ Groups: Group[]" style="text;strokeColor=#82b366;fillColor=#d5e8d4;align=left;verticalAlign=top;spacingLeft=4;spacingRight=4;overflow=hidden;rotatable=0;points=[[0,0.5],[1,0.5]];portConstraint=eastwest;" vertex="1" parent="ZVsHchO25P_MbFDnP1mq-40">
          <mxGeometry y="52" width="270" height="26" as="geometry" />
        </mxCell>
        <mxCell id="ZVsHchO25P_MbFDnP1mq-43" value="+ RepeatableInstances: RepeatableInstance[]" style="text;strokeColor=#82b366;fillColor=#d5e8d4;align=left;verticalAlign=top;spacingLeft=4;spacingRight=4;overflow=hidden;rotatable=0;points=[[0,0.5],[1,0.5]];portConstraint=eastwest;" vertex="1" parent="ZVsHchO25P_MbFDnP1mq-40">
          <mxGeometry y="78" width="270" height="26" as="geometry" />
        </mxCell>
        <mxCell id="ZVsHchO25P_MbFDnP1mq-44" style="edgeStyle=orthogonalEdgeStyle;rounded=0;orthogonalLoop=1;jettySize=auto;html=1;" edge="1" parent="1" source="ZVsHchO25P_MbFDnP1mq-41" target="ZVsHchO25P_MbFDnP1mq-13">
          <mxGeometry relative="1" as="geometry" />
        </mxCell>
        <mxCell id="ZVsHchO25P_MbFDnP1mq-45" style="edgeStyle=orthogonalEdgeStyle;rounded=0;orthogonalLoop=1;jettySize=auto;html=1;" edge="1" parent="1" source="ZVsHchO25P_MbFDnP1mq-10" target="ZVsHchO25P_MbFDnP1mq-27">
          <mxGeometry relative="1" as="geometry" />
        </mxCell>
        <mxCell id="ZVsHchO25P_MbFDnP1mq-49" value="ResponceToRCS" style="swimlane;fontStyle=0;childLayout=stackLayout;horizontal=1;startSize=26;fillColor=#d5e8d4;horizontalStack=0;resizeParent=1;resizeParentMax=0;resizeLast=0;collapsible=1;marginBottom=0;strokeColor=#82b366;" vertex="1" parent="1">
          <mxGeometry x="380" y="220" width="140" height="130" as="geometry" />
        </mxCell>
        <mxCell id="ZVsHchO25P_MbFDnP1mq-50" value="+ ModelVersion: string" style="text;strokeColor=#82b366;fillColor=#d5e8d4;align=left;verticalAlign=top;spacingLeft=4;spacingRight=4;overflow=hidden;rotatable=0;points=[[0,0.5],[1,0.5]];portConstraint=eastwest;" vertex="1" parent="ZVsHchO25P_MbFDnP1mq-49">
          <mxGeometry y="26" width="140" height="26" as="geometry" />
        </mxCell>
        <mxCell id="ZVsHchO25P_MbFDnP1mq-51" value="+ TaskId: string" style="text;strokeColor=#82b366;fillColor=#d5e8d4;align=left;verticalAlign=top;spacingLeft=4;spacingRight=4;overflow=hidden;rotatable=0;points=[[0,0.5],[1,0.5]];portConstraint=eastwest;" vertex="1" parent="ZVsHchO25P_MbFDnP1mq-49">
          <mxGeometry y="52" width="140" height="26" as="geometry" />
        </mxCell>
        <mxCell id="ZVsHchO25P_MbFDnP1mq-52" value="+ Status: Status" style="text;strokeColor=#82b366;fillColor=#d5e8d4;align=left;verticalAlign=top;spacingLeft=4;spacingRight=4;overflow=hidden;rotatable=0;points=[[0,0.5],[1,0.5]];portConstraint=eastwest;" vertex="1" parent="ZVsHchO25P_MbFDnP1mq-49">
          <mxGeometry y="78" width="140" height="26" as="geometry" />
        </mxCell>
        <mxCell id="ZVsHchO25P_MbFDnP1mq-53" value="+ Batch: Batch" style="text;strokeColor=#82b366;fillColor=#d5e8d4;align=left;verticalAlign=top;spacingLeft=4;spacingRight=4;overflow=hidden;rotatable=0;points=[[0,0.5],[1,0.5]];portConstraint=eastwest;" vertex="1" parent="ZVsHchO25P_MbFDnP1mq-49">
          <mxGeometry y="104" width="140" height="26" as="geometry" />
        </mxCell>
        <mxCell id="ZVsHchO25P_MbFDnP1mq-54" value="Status" style="swimlane;fontStyle=0;childLayout=stackLayout;horizontal=1;startSize=26;fillColor=#d5e8d4;horizontalStack=0;resizeParent=1;resizeParentMax=0;resizeLast=0;collapsible=1;marginBottom=0;strokeColor=#82b366;" vertex="1" parent="1">
          <mxGeometry x="180" y="350" width="140" height="78" as="geometry" />
        </mxCell>
        <mxCell id="ZVsHchO25P_MbFDnP1mq-55" value="+ Code: int" style="text;strokeColor=#82b366;fillColor=#d5e8d4;align=left;verticalAlign=top;spacingLeft=4;spacingRight=4;overflow=hidden;rotatable=0;points=[[0,0.5],[1,0.5]];portConstraint=eastwest;" vertex="1" parent="ZVsHchO25P_MbFDnP1mq-54">
          <mxGeometry y="26" width="140" height="26" as="geometry" />
        </mxCell>
        <mxCell id="ZVsHchO25P_MbFDnP1mq-56" value="+ Description: String" style="text;strokeColor=#82b366;fillColor=#d5e8d4;align=left;verticalAlign=top;spacingLeft=4;spacingRight=4;overflow=hidden;rotatable=0;points=[[0,0.5],[1,0.5]];portConstraint=eastwest;" vertex="1" parent="ZVsHchO25P_MbFDnP1mq-54">
          <mxGeometry y="52" width="140" height="26" as="geometry" />
        </mxCell>
        <mxCell id="ZVsHchO25P_MbFDnP1mq-57" style="edgeStyle=orthogonalEdgeStyle;rounded=0;orthogonalLoop=1;jettySize=auto;html=1;" edge="1" parent="1" source="ZVsHchO25P_MbFDnP1mq-52" target="ZVsHchO25P_MbFDnP1mq-54">
          <mxGeometry relative="1" as="geometry" />
        </mxCell>
        <mxCell id="ZVsHchO25P_MbFDnP1mq-58" style="edgeStyle=orthogonalEdgeStyle;rounded=0;orthogonalLoop=1;jettySize=auto;html=1;" edge="1" parent="1" source="ZVsHchO25P_MbFDnP1mq-53" target="ZVsHchO25P_MbFDnP1mq-1">
          <mxGeometry relative="1" as="geometry" />
        </mxCell>
        <mxCell id="ZVsHchO25P_MbFDnP1mq-59" style="edgeStyle=orthogonalEdgeStyle;rounded=0;orthogonalLoop=1;jettySize=auto;html=1;" edge="1" parent="1" source="ZVsHchO25P_MbFDnP1mq-11" target="ZVsHchO25P_MbFDnP1mq-60">
          <mxGeometry relative="1" as="geometry" />
        </mxCell>
        <mxCell id="ZVsHchO25P_MbFDnP1mq-60" value="RepeatableInstance" style="swimlane;fontStyle=0;childLayout=stackLayout;horizontal=1;startSize=26;fillColor=#d5e8d4;horizontalStack=0;resizeParent=1;resizeParentMax=0;resizeLast=0;collapsible=1;marginBottom=0;strokeColor=#82b366;" vertex="1" parent="1">
          <mxGeometry x="370" y="790" width="140" height="78" as="geometry" />
        </mxCell>
        <mxCell id="ZVsHchO25P_MbFDnP1mq-61" value="+ Name: string" style="text;strokeColor=#82b366;fillColor=#d5e8d4;align=left;verticalAlign=top;spacingLeft=4;spacingRight=4;overflow=hidden;rotatable=0;points=[[0,0.5],[1,0.5]];portConstraint=eastwest;" vertex="1" parent="ZVsHchO25P_MbFDnP1mq-60">
          <mxGeometry y="26" width="140" height="26" as="geometry" />
        </mxCell>
        <mxCell id="ZVsHchO25P_MbFDnP1mq-62" value="+ Instances: Instance[]" style="text;strokeColor=#82b366;fillColor=#d5e8d4;align=left;verticalAlign=top;spacingLeft=4;spacingRight=4;overflow=hidden;rotatable=0;points=[[0,0.5],[1,0.5]];portConstraint=eastwest;" vertex="1" parent="ZVsHchO25P_MbFDnP1mq-60">
          <mxGeometry y="52" width="140" height="26" as="geometry" />
        </mxCell>
        <mxCell id="ZVsHchO25P_MbFDnP1mq-63" style="edgeStyle=orthogonalEdgeStyle;rounded=0;orthogonalLoop=1;jettySize=auto;html=1;" edge="1" parent="1" source="ZVsHchO25P_MbFDnP1mq-62" target="ZVsHchO25P_MbFDnP1mq-40">
          <mxGeometry relative="1" as="geometry" />
        </mxCell>
        <mxCell id="ZVsHchO25P_MbFDnP1mq-64" style="edgeStyle=orthogonalEdgeStyle;rounded=0;orthogonalLoop=1;jettySize=auto;html=1;" edge="1" parent="1" source="ZVsHchO25P_MbFDnP1mq-42" target="ZVsHchO25P_MbFDnP1mq-18">
          <mxGeometry relative="1" as="geometry" />
        </mxCell>
        <mxCell id="ZVsHchO25P_MbFDnP1mq-65" style="edgeStyle=orthogonalEdgeStyle;rounded=0;orthogonalLoop=1;jettySize=auto;html=1;" edge="1" parent="1" source="ZVsHchO25P_MbFDnP1mq-23" target="ZVsHchO25P_MbFDnP1mq-60">
          <mxGeometry relative="1" as="geometry" />
        </mxCell>
      </root>
    </mxGraphModel>
  </diagram>
</mxfile>
